# xmcd CD database file
#
# Track frame offsets:
#	150
#	15360
#	40378
#	59262
#	73777
#	96588
#	109512
#	131807
#	152250
#	168441
#
# Disc length: 2463 seconds
#
# Revision: 0
# Processed by: cddbd v1.5.1PL2 Copyright (c) Steve Scherf et al.
# Submitted via: CDex 1.51
#
DISCID=7f099d0a
DTITLE=The Undesirables - Summer's Gone
DYEAR=2003
DGENRE=Blues
TTITLE0=Summer's Gone
TTITLE1=California Wine
TTITLE2=Round Trip Love Song
TTITLE3=Overwhelmed
TTITLE4=Night Train
TTITLE5=Ninety Days
TTITLE6=Sandy Side of the Moon
TTITLE7=The Butcher Song
TTITLE8=Rainbed
TTITLE9=Sinking Into Sleep
EXTD=YEAR: 2003
EXTT0=
EXTT1=
EXTT2=
EXTT3=
EXTT4=
EXTT5=
EXTT6=
EXTT7=
EXTT8=
EXTT9=
PLAYORDER=
